<svg width="536" height="292" viewBox="0 0 536 292" fill="none" xmlns="http://www.w3.org/2000/svg">
<path d="M111.14 255.5C111.14 248.5 112.557 242.375 115.39 237.125C118.223 231.792 122.098 227.667 127.015 224.75C132.015 221.833 137.557 220.375 143.64 220.375C149.64 220.375 154.848 221.667 159.265 224.25C163.682 226.833 166.973 230.083 169.14 234V221.5H180.64V290H169.14V277.25C166.89 281.25 163.515 284.583 159.015 287.25C154.598 289.833 149.432 291.125 143.515 291.125C137.432 291.125 131.932 289.625 127.015 286.625C122.098 283.625 118.223 279.417 115.39 274C112.557 268.583 111.14 262.417 111.14 255.5ZM169.14 255.625C169.14 250.458 168.098 245.958 166.015 242.125C163.932 238.292 161.098 235.375 157.515 233.375C154.015 231.292 150.14 230.25 145.89 230.25C141.64 230.25 137.765 231.25 134.265 233.25C130.765 235.25 127.973 238.167 125.89 242C123.807 245.833 122.765 250.333 122.765 255.5C122.765 260.75 123.807 265.333 125.89 269.25C127.973 273.083 130.765 276.042 134.265 278.125C137.765 280.125 141.64 281.125 145.89 281.125C150.14 281.125 154.015 280.125 157.515 278.125C161.098 276.042 163.932 273.083 166.015 269.25C168.098 265.333 169.14 260.792 169.14 255.625ZM260.613 221.5V290H249.238V279.875C247.071 283.375 244.029 286.125 240.113 288.125C236.279 290.042 232.029 291 227.363 291C222.029 291 217.238 289.917 212.988 287.75C208.738 285.5 205.363 282.167 202.863 277.75C200.446 273.333 199.238 267.958 199.238 261.625V221.5H210.488V260.125C210.488 266.875 212.196 272.083 215.613 275.75C219.029 279.333 223.696 281.125 229.613 281.125C235.696 281.125 240.488 279.25 243.988 275.5C247.488 271.75 249.238 266.292 249.238 259.125V221.5H260.613ZM304.069 291.125C298.819 291.125 294.11 290.25 289.944 288.5C285.777 286.667 282.485 284.167 280.069 281C277.652 277.75 276.319 274.042 276.069 269.875H287.819C288.152 273.292 289.735 276.083 292.569 278.25C295.485 280.417 299.277 281.5 303.944 281.5C308.277 281.5 311.694 280.542 314.194 278.625C316.694 276.708 317.944 274.292 317.944 271.375C317.944 268.375 316.61 266.167 313.944 264.75C311.277 263.25 307.152 261.792 301.569 260.375C296.485 259.042 292.319 257.708 289.069 256.375C285.902 254.958 283.152 252.917 280.819 250.25C278.569 247.5 277.444 243.917 277.444 239.5C277.444 236 278.485 232.792 280.569 229.875C282.652 226.958 285.61 224.667 289.444 223C293.277 221.25 297.652 220.375 302.569 220.375C310.152 220.375 316.277 222.292 320.944 226.125C325.61 229.958 328.11 235.208 328.444 241.875H317.069C316.819 238.292 315.36 235.417 312.694 233.25C310.11 231.083 306.61 230 302.194 230C298.11 230 294.86 230.875 292.444 232.625C290.027 234.375 288.819 236.667 288.819 239.5C288.819 241.75 289.527 243.625 290.944 245.125C292.444 246.542 294.277 247.708 296.444 248.625C298.694 249.458 301.777 250.417 305.694 251.5C310.61 252.833 314.61 254.167 317.694 255.5C320.777 256.75 323.402 258.667 325.569 261.25C327.819 263.833 328.985 267.208 329.069 271.375C329.069 275.125 328.027 278.5 325.944 281.5C323.86 284.5 320.902 286.875 317.069 288.625C313.319 290.292 308.985 291.125 304.069 291.125ZM407.626 253.125C407.626 255.292 407.501 257.583 407.251 260H352.501C352.918 266.75 355.21 272.042 359.376 275.875C363.626 279.625 368.751 281.5 374.751 281.5C379.668 281.5 383.751 280.375 387.001 278.125C390.335 275.792 392.668 272.708 394.001 268.875H406.251C404.418 275.458 400.751 280.833 395.251 285C389.751 289.083 382.918 291.125 374.751 291.125C368.251 291.125 362.418 289.667 357.251 286.75C352.168 283.833 348.168 279.708 345.251 274.375C342.335 268.958 340.876 262.708 340.876 255.625C340.876 248.542 342.293 242.333 345.126 237C347.96 231.667 351.918 227.583 357.001 224.75C362.168 221.833 368.085 220.375 374.751 220.375C381.251 220.375 387.001 221.792 392.001 224.625C397.001 227.458 400.835 231.375 403.501 236.375C406.251 241.292 407.626 246.875 407.626 253.125ZM395.876 250.75C395.876 246.417 394.918 242.708 393.001 239.625C391.085 236.458 388.46 234.083 385.126 232.5C381.876 230.833 378.251 230 374.251 230C368.501 230 363.585 231.833 359.501 235.5C355.501 239.167 353.21 244.25 352.626 250.75H395.876ZM456.016 220.25C464.349 220.25 471.099 222.792 476.266 227.875C481.433 232.875 484.016 240.125 484.016 249.625V290H472.766V251.25C472.766 244.417 471.058 239.208 467.641 235.625C464.224 231.958 459.558 230.125 453.641 230.125C447.641 230.125 442.849 232 439.266 235.75C435.766 239.5 434.016 244.958 434.016 252.125V290H422.641V221.5H434.016V231.25C436.266 227.75 439.308 225.042 443.141 223.125C447.058 221.208 451.349 220.25 456.016 220.25ZM516.472 230.875V271.25C516.472 274.583 517.18 276.958 518.597 278.375C520.014 279.708 522.472 280.375 525.972 280.375H534.347V290H524.097C517.764 290 513.014 288.542 509.847 285.625C506.68 282.708 505.097 277.917 505.097 271.25V230.875H496.222V221.5H505.097V204.25H516.472V221.5H534.347V230.875H516.472Z" fill="#595959"/>
<circle cx="519.765" cy="56.5" r="15" fill="#F0B73E"/>
<circle cx="520.765" cy="15" r="15" fill="#EEEEEE"/>
<circle cx="520.765" cy="97.5" r="15" fill="#EEEEEE"/>
<circle cx="520.765" cy="137.5" r="15" fill="#00A29C"/>
<circle cx="520.765" cy="179" r="15" fill="#EEEEEE"/>
<circle cx="156.765" cy="98" r="15" fill="#377DED"/>
<circle cx="156.765" cy="138" r="15" fill="#EEEEEE"/>
<circle cx="156.765" cy="179" r="15" fill="#EEEEEE"/>
<circle cx="448.765" cy="56" r="15" fill="#EEEEEE"/>
<circle cx="448.765" cy="97" r="15" fill="#F0B73E"/>
<circle cx="448.765" cy="138" r="15" fill="#00A29C"/>
<circle cx="448.765" cy="179" r="15" fill="#EEEEEE"/>
<circle cx="375.765" cy="98" r="15" fill="#EEEEEE"/>
<circle cx="375.765" cy="139" r="15" fill="#00A29C"/>
<circle cx="375.765" cy="179" r="15" fill="#EEEEEE"/>
<circle cx="302.765" cy="56" r="15" fill="#EEEEEE"/>
<circle cx="302.765" cy="97" r="15" fill="#377DED"/>
<circle cx="302.765" cy="137" r="15" fill="#EEEEEE"/>
<circle cx="302.765" cy="179" r="15" fill="#EEEEEE"/>
<circle cx="229.765" cy="56" r="15" fill="#EEEEEE"/>
<circle cx="229.765" cy="15" r="15" fill="#EEEEEE"/>
<circle cx="229.765" cy="97" r="15" fill="#EEEEEE"/>
<circle cx="229.765" cy="137" r="15" fill="#377DED"/>
<circle cx="229.765" cy="179" r="15" fill="#EEEEEE"/>
<path d="M-3.98606e-07 239.395C-3.98606e-07 229.535 2.22333 220.69 6.67 212.86C11.1167 204.933 17.1583 198.747 24.795 194.3C32.5283 189.853 41.0833 187.63 50.46 187.63C61.48 187.63 71.0983 190.288 79.315 195.605C87.5317 200.922 93.525 208.462 97.295 218.225H81.49C78.6867 212.135 74.6267 207.447 69.31 204.16C64.09 200.873 57.8067 199.23 50.46 199.23C43.4033 199.23 37.0717 200.873 31.465 204.16C25.8583 207.447 21.46 212.135 18.27 218.225C15.08 224.218 13.485 231.275 13.485 239.395C13.485 247.418 15.08 254.475 18.27 260.565C21.46 266.558 25.8583 271.198 31.465 274.485C37.0717 277.772 43.4033 279.415 50.46 279.415C57.8067 279.415 64.09 277.82 69.31 274.63C74.6267 271.343 78.6867 266.655 81.49 260.565H97.295C93.525 270.232 87.5317 277.723 79.315 283.04C71.0983 288.26 61.48 290.87 50.46 290.87C41.0833 290.87 32.5283 288.695 24.795 284.345C17.1583 279.898 11.1167 273.76 6.67 265.93C2.22333 258.1 -3.98606e-07 249.255 -3.98606e-07 239.395Z" fill="#595959"/>
</svg>
